<?xml version="1.0" ?>
<!-- Uploaded to: SVG Repo, www.svgrepo.com, Generator: SVG Repo Mixer Tools -->
<svg fill="#000000" width="800px" height="800px" viewBox="0 0 64 64" xmlns="http://www.w3.org/2000/svg">
<g id="dislike">
<path d="M6,12a3,3,0,1,0-3,3A3.0033,3.0033,0,0,0,6,12ZM3,13a1,1,0,1,1,1-1A1.0013,1.0013,0,0,1,3,13Z"/>
<circle cx="36" cy="22" r="2"/>
<circle cx="22" cy="22" r="2"/>
<path d="M29,8A24.0275,24.0275,0,0,0,5,32V49.209A3.7954,3.7954,0,0,0,8.791,53h4.51c2.9541,8,4.0845,8,4.6992,8a3.0033,3.0033,0,0,0,3-3,.9786.9786,0,0,0-.0137-.1646L20.417,54.42A24.0029,24.0029,0,1,0,29,8ZM19,51a1,1,0,0,0-.9863,1.1646l.9839,5.9042a1.0021,1.0021,0,0,1-.7632.9034A38.8545,38.8545,0,0,1,14.94,51.66,1,1,0,0,0,14,51H13V41H23.8057A1.1954,1.1954,0,0,1,25,42.1943V43H23a1,1,0,0,0,0,2h2v2H23a1,1,0,0,0,0,2h2v.8057A1.1954,1.1954,0,0,1,23.8057,51Zm10,3a21.9012,21.9012,0,0,1-6.5825-1h1.3882A3.1981,3.1981,0,0,0,27,49.8057V42.1943A3.1981,3.1981,0,0,0,23.8057,39H7V34H9a1,1,0,0,0,0-2H7A22,22,0,1,1,29,54Z"/>
<path d="M52.7,53.4561a1,1,0,0,0-1.4141,0l-.7668.7669-.7669-.7669a1,1,0,0,0-1.414,1.414l.7669.7671-.7669.7671a1,1,0,1,0,1.414,1.4141l.7669-.767.7668.767A1,1,0,1,0,52.7,56.4043l-.767-.7671L52.7,54.87A1,1,0,0,0,52.7,53.4561Z"/>
<circle cx="56" cy="45" r="1"/>
<path d="M37.2637,29H20.7363a2.1922,2.1922,0,0,0-.854,4.21,24.1213,24.1213,0,0,0,18.2354,0,2.1922,2.1922,0,0,0-.854-4.21Z"/>
<path d="M48,6a1,1,0,0,0,1-1V4a1,1,0,0,0-2,0V5A1,1,0,0,0,48,6Z"/>
<path d="M48,8a1,1,0,0,0-1,1v1a1,1,0,0,0,2,0V9A1,1,0,0,0,48,8Z"/>
<path d="M45,8h1a1,1,0,0,0,0-2H45a1,1,0,0,0,0,2Z"/>
<path d="M50,8h1a1,1,0,0,0,0-2H50a1,1,0,0,0,0,2Z"/>
</g>
</svg>