<!DOCTYPE svg PUBLIC "-//W3C//DTD SVG 1.1//EN" "http://www.w3.org/Graphics/SVG/1.1/DTD/svg11.dtd">
<!-- Uploaded to: SVG Repo, www.svgrepo.com, Transformed by: SVG Repo Mixer Tools -->
<svg fill="#b98413" width="205px" height="205px" viewBox="-9.6 -9.6 51.20 51.20" version="1.1" xmlns="http://www.w3.org/2000/svg" stroke="#b98413" transform="rotate(0)">
<g id="SVGRepo_bgCarrier" stroke-width="0" transform="translate(0,0), scale(1)">
<path transform="translate(-9.6, -9.6), scale(1.6)" d="M16,30.810854721348733C18.554189815927224,30.58736009085032,19.352086756634815,26.923136138490936,21.650832332437858,25.787528704835317C24.195799840461387,24.530284731885455,28.115165010268484,26.247817575407215,29.82432249871218,23.98147631599568C31.46202555031171,21.809883574191737,29.341392061260652,18.702260696834024,29.0320808137767,16C28.760109930992247,13.62395893065666,29.062019891379453,11.202129965448897,28.11040641852493,9.008053594268862C27.095465371342836,6.667966748836619,25.831419871892432,4.0024202425974735,23.441698276670657,3.1106004902086806C21.037219881250216,2.2132736503308927,18.47474338048398,3.8086049113430844,16,4.48857330204919C14.098050861027064,5.011158918574556,12.372749690696537,5.7834320839548505,10.596063840901483,6.640108011582749C8.67993963340989,7.564017819888186,6.628198055683583,8.211871127195943,5.135311648423935,9.72726925555616C3.3948269386781726,11.493999301969918,1.305172534820284,13.520944536457735,1.3752160244621336,15.999999999999996C1.4454287831249382,18.48504641706779,3.9634644999372073,20.1046176932514,5.484083076849629,22.071367466356598C6.8092336940538765,23.785301332013148,8.081662683209803,25.444338477046813,9.74784253071993,26.82905439371432C11.681019932983562,28.435664582078225,13.49593083049226,31.029963735992755,16,30.810854721348733" fill="#ebfaff" strokewidth="0"/>
</g>
<g id="SVGRepo_tracerCarrier" stroke-linecap="round" stroke-linejoin="round"/>
<g id="SVGRepo_iconCarrier"> <title>git</title> <path d="M30.428 14.663l-13.095-13.094c-0.35-0.349-0.833-0.565-1.367-0.565s-1.017 0.216-1.367 0.565l0-0-2.713 2.718 3.449 3.449c0.22-0.077 0.473-0.121 0.737-0.121 1.269 0 2.297 1.028 2.297 2.297 0 0.269-0.046 0.526-0.131 0.766l0.005-0.016 3.322 3.324c0.222-0.079 0.479-0.125 0.746-0.125 1.268 0 2.296 1.028 2.296 2.296s-1.028 2.296-2.296 2.296c-1.268 0-2.296-1.028-2.296-2.296 0-0.313 0.063-0.611 0.176-0.883l-0.006 0.015-3.11-3.094v8.154c0.764 0.385 1.279 1.163 1.279 2.061 0 1.27-1.030 2.3-2.3 2.3s-2.3-1.030-2.3-2.3c0-0.634 0.256-1.207 0.671-1.623l-0 0c0.211-0.211 0.462-0.382 0.741-0.502l0.015-0.006v-8.234c-0.842-0.354-1.422-1.173-1.422-2.126 0-0.32 0.065-0.624 0.183-0.901l-0.006 0.015-3.389-3.405-8.98 8.974c-0.348 0.351-0.562 0.834-0.562 1.368s0.215 1.017 0.563 1.368l13.096 13.092c0.349 0.35 0.832 0.566 1.366 0.566s1.016-0.216 1.366-0.566l13.034-13.034c0.35-0.349 0.567-0.833 0.567-1.366s-0.217-1.017-0.567-1.366l-0-0z"/> </g>
</svg>