<?xml version="1.0" ?>

<!-- Uploaded to: SVG Repo, www.svgrepo.com, Generator: SVG Repo Mixer Tools -->
<svg fill="#1A73E9" width="800px" height="800px" viewBox="0 0 64 64" xmlns="http://www.w3.org/2000/svg">

<g id="like">

<path d="M8,12a3,3,0,1,0-3,3A3.0033,3.0033,0,0,0,8,12ZM5,13a1,1,0,1,1,1-1A1.0013,1.0013,0,0,1,5,13Z"/>

<circle cx="38" cy="22" r="2"/>

<circle cx="24" cy="22" r="2"/>

<path d="M31,8A24.0275,24.0275,0,0,0,7,32V54.209A3.7954,3.7954,0,0,0,10.791,58H25.8057a3.2,3.2,0,0,0,3.0009-2.0991C29.5352,55.9668,30.2705,56,31,56A24,24,0,0,0,31,8ZM25.8057,56H15V46h1a1,1,0,0,0,.94-.66,38.8216,38.8216,0,0,1,3.294-7.3125,1.0016,1.0016,0,0,1,.7632.9034l-.9839,5.9042A1,1,0,0,0,21,46h4.8057A1.1954,1.1954,0,0,1,27,47.1943V48H25a1,1,0,0,0,0,2h2v2H25a1,1,0,0,0,0,2h2v.8057A1.1954,1.1954,0,0,1,25.8057,56ZM31,54c-.6655,0-1.3354-.03-2-.09V47.1943A3.1981,3.1981,0,0,0,25.8057,44h-3.625l.8056-4.8354A.9786.9786,0,0,0,23,39a3.0033,3.0033,0,0,0-3-3c-.6147,0-1.7451,0-4.6992,8H9V34h3a1,1,0,0,0,0-2H9A22,22,0,1,1,31,54Z"/>

<path d="M54.7,53.4561a1,1,0,0,0-1.4141,0l-.7668.7669-.7669-.7669a1,1,0,0,0-1.414,1.414l.7669.7671-.7669.7671a1,1,0,1,0,1.414,1.4141l.7669-.767.7668.767A1,1,0,1,0,54.7,56.4043l-.767-.7671L54.7,54.87A1,1,0,0,0,54.7,53.4561Z"/>

<circle cx="58" cy="45" r="1"/>

<path d="M39.2637,29H22.7363a2.1922,2.1922,0,0,0-.854,4.21,24.1213,24.1213,0,0,0,18.2354,0,2.1922,2.1922,0,0,0-.854-4.21Z"/>

<path d="M52,6a1,1,0,0,0,1-1V4a1,1,0,0,0-2,0V5A1,1,0,0,0,52,6Z"/>

<path d="M52,8a1,1,0,0,0-1,1v1a1,1,0,0,0,2,0V9A1,1,0,0,0,52,8Z"/>

<path d="M49,8h1a1,1,0,0,0,0-2H49a1,1,0,0,0,0,2Z"/>

<path d="M55,6H54a1,1,0,0,0,0,2h1a1,1,0,0,0,0-2Z"/>

</g>

</svg>