<?xml version="1.0" encoding="UTF-8" standalone="no"?> <svg id="Layer_1" data-name="Layer 1" xmlns="http://www.w3.org/2000/svg" viewBox="0 0 128 128"><defs><style>.cls-1{fill:#2e79bd;}.cls-2{fill:rgba(85, 85, 85, 1);}</style></defs><title>b</title><path class="cls-1" d="M80.84387,17.1189H79.78013c-.41057.32948-2.1574,1.41153-2.88286,1.84672a.82873.82873,0,0,0,.77723,1.46144l1.508-.70519v7.08418a.99717.99717,0,0,0,1.99433,0V17.45182A.3333.3333,0,0,0,80.84387,17.1189Z"/><path class="cls-1" d="M98.7244,17.1189H97.66069c-.41046.32939-2.15731,1.41153-2.88275,1.84672a.8287.8287,0,0,0,.77714,1.46144l1.508-.70519v7.08418a.99714.99714,0,1,0,1.99428,0V17.45182A.33332.33332,0,0,0,98.7244,17.1189Z"/><path class="cls-1" d="M90.53135,21.6556H88.66912V19.50581a.80633.80633,0,0,0-.80544-.80546h-.17573a.80638.80638,0,0,0-.80549.80546V21.6556H85.02028a.80548.80548,0,1,0,0,1.611h1.86217v2.14973a.80638.80638,0,0,0,.80549.80546h.17573a.80633.80633,0,0,0,.80544-.80546V23.26655h1.86223a.80548.80548,0,0,0,0-1.611Z"/><path class="cls-2" d="M102.53074,1.42929H25.474A14.49484,14.49484,0,0,0,10.9737,15.92008V112.0799A14.49482,14.49482,0,0,0,25.474,126.57071h77.05677A14.4908,14.4908,0,0,0,117.0263,112.0799V15.92008A14.49081,14.49081,0,0,0,102.53074,1.42929ZM53.299,111.2551a3.29015,3.29015,0,0,1-4.65014,0l-4.73546-4.73549-4.73546,4.73549a3.2902,3.2902,0,0,1-4.64542,0,3.27874,3.27874,0,0,1,0-4.65014l4.73074-4.73549L34.5325,97.13876a3.28648,3.28648,0,1,1,4.64542-4.65014l4.73546,4.73546,4.73546-4.73546A3.28815,3.28815,0,1,1,53.299,97.13876l-4.73546,4.73072L53.299,106.605a3.29015,3.29015,0,0,1,0,4.65014Zm.59727-46.35923H47.20308V71.589a3.2897,3.2897,0,0,1-6.57941,0V64.89588H33.93051a3.28733,3.28733,0,0,1,0-6.57466h6.69317V51.628a3.2897,3.2897,0,0,1,6.57941,0v6.69317h6.69317a3.28733,3.28733,0,1,1,0,6.57466Zm40.2633,45.25475H74.19381a3.28733,3.28733,0,1,1,0-6.57466H94.15955a3.28733,3.28733,0,0,1,0,6.57466Zm0-9.98287H74.19381a3.28733,3.28733,0,1,1,0-6.57466H94.15955a3.28733,3.28733,0,0,1,0,6.57466Zm0-35.27188H74.19381a3.28733,3.28733,0,1,1,0-6.57466H94.15955a3.28733,3.28733,0,0,1,0,6.57466ZM107.52219,33.985H20.48255V15.92008A4.98669,4.98669,0,0,1,25.474,10.93814h77.05677a4.9928,4.9928,0,0,1,4.99145,4.98193Z"/></svg>