<?xml version="1.0" encoding="iso-8859-1"?>
<!-- Uploaded to: SVG Repo, www.svgrepo.com, Transformed by: SVG Repo Mixer Tools -->
<svg height="800px" width="800px" version="1.1" id="Layer_1" xmlns="http://www.w3.org/2000/svg" xmlns:xlink="http://www.w3.org/1999/xlink" 
	 viewBox="0 0 503.467 503.467" xml:space="preserve">
<g transform="translate(7 9)">
	<path style="fill:#80D6FA;" d="M441,319.533c0,18.773-15.36,34.133-34.133,34.133H82.6c-18.773,0-34.133-15.36-34.133-34.133
		c59.733-59.733,170.667-17.067,170.667-17.067s25.6-34.133,85.333-34.133C377.853,268.333,441,319.533,441,319.533z M304.467,131.8
		c18.773,0,25.6,42.667,25.6,76.8c0,15.36-10.24,25.6-25.6,25.6c-15.36,0-25.6-10.24-25.6-25.6
		C278.867,174.467,285.693,131.8,304.467,131.8z"/>
	<path style="fill:#ECF4F7;" d="M304.467,268.333c-59.733,0-85.333,34.133-85.333,34.133S108.2,259.8,48.467,319.533V97.667
		c0-18.773,15.36-34.133,34.133-34.133h324.267c18.773,0,34.133,15.36,34.133,34.133v221.867
		C441,319.533,377.853,268.333,304.467,268.333"/>
	<path style="fill:#80D6FA;" d="M304.467,234.2c15.36,0,25.6-11.093,25.6-25.6c0-34.133-6.827-76.8-25.6-76.8
		c-18.773,0-25.6,42.667-25.6,76.8C278.867,223.96,289.107,234.2,304.467,234.2"/>
	<path style="fill:#FFE079;" d="M150.867,131.8c9.387,0,17.067,7.68,17.067,17.067s-7.68,17.067-17.067,17.067
		s-17.067-7.68-17.067-17.067S141.48,131.8,150.867,131.8"/>
</g>
<path style="fill:#51565F;" d="M362.667,503.467c-1.707,0-3.413-0.853-3.413-2.56l-50.347-99.84H256V499.2
	c0,2.56-1.707,4.267-4.267,4.267s-4.267-1.707-4.267-4.267v-98.133H194.56l-50.347,99.84c-0.853,1.707-3.413,2.56-5.973,1.707
	c-1.707-0.853-2.56-2.56-2.56-3.413s0-1.707,0.853-1.707l47.787-96.427h-27.307c-2.56,0-4.267-1.707-4.267-4.267
	c0-2.56,1.707-4.267,4.267-4.267h34.133l0,0h119.467l0,0h34.133c2.56,0,4.267,1.707,4.267,4.267c0,2.56-1.707,4.267-4.267,4.267
	H317.44l47.787,96.427c0,0.853,0.853,0.853,0.853,1.707c0,1.707-0.853,3.413-2.56,3.413
	C364.373,503.467,363.52,503.467,362.667,503.467z M413.867,366.933H89.6c-21.333,0-38.4-17.067-38.4-38.4
	c0-0.853,0.853-2.56,0.853-3.413c56.32-56.32,153.6-25.6,172.373-18.773c6.827-7.68,32.427-31.573,82.773-33.28v-25.6
	c-15.36-1.707-25.6-13.653-25.6-29.867c0-37.547,7.68-81.067,29.867-81.067c28.16,0,29.867,67.413,29.867,81.067
	c0,16.213-10.24,28.16-25.6,29.867v25.6c58.027,1.707,98.987,33.28,100.693,34.987c1.707,1.707,2.56,4.267,0.853,5.973
	c-1.707,1.707-4.267,2.56-5.973,0.853c0,0-42.667-33.28-99.84-33.28s-81.92,32.427-81.92,32.427
	c-0.853,1.707-3.413,1.707-5.12,1.707c-0.853,0-107.52-40.107-164.693,14.507C60.587,345.6,73.387,358.4,89.6,358.4h324.267
	c16.213,0,29.867-13.653,29.867-29.867V106.667c0-16.213-13.653-29.867-29.867-29.867H89.6c-16.213,0-29.867,13.653-29.867,29.867
	v179.2c0,2.56-1.707,4.267-4.267,4.267c-2.56,0-4.267-1.707-4.267-4.267v-179.2c0-21.333,17.067-38.4,38.4-38.4h324.267
	c21.333,0,38.4,17.067,38.4,38.4v221.867C452.267,349.867,435.2,366.933,413.867,366.933z M311.467,145.067
	c-13.653,0-21.333,36.693-21.333,72.533c0,12.8,8.533,21.333,21.333,21.333c12.8,0,21.333-8.533,21.333-21.333
	C332.8,176.64,323.413,145.067,311.467,145.067z M157.867,196.267L157.867,196.267c-2.56,0-4.267-1.707-4.267-4.267v-13.653
	c-2.56-0.853-5.12-1.707-7.68-3.413l-9.387,9.387c-1.707,1.707-4.267,1.707-5.973,0c-0.853-0.853-0.853-1.707-0.853-3.413
	s0-2.56,0.853-3.413l9.387-9.387c-1.707-2.56-2.56-5.12-3.413-7.68H122.88c-2.56,0-4.267-1.707-4.267-4.267
	c0-2.56,1.707-4.267,4.267-4.267h13.653c0.853-2.56,1.707-5.12,3.413-7.68l-9.387-9.387c-0.853-0.853-0.853-1.707-0.853-3.413
	s0-2.56,0.853-3.413c1.707-1.707,4.267-1.707,5.973,0l9.387,9.387c2.56-1.707,5.12-2.56,7.68-3.413V120.32
	c0-2.56,1.707-4.267,4.267-4.267l0,0c2.56,0,4.267,1.707,4.267,4.267v13.653c2.56,0.853,5.12,1.707,7.68,3.413L179.2,128
	c1.707-1.707,4.267-1.707,5.973,0c0.853,0.853,0.853,1.707,0.853,3.413s0,2.56-0.853,3.413l-9.387,9.387
	c1.707,2.56,2.56,5.12,3.413,7.68h13.653c2.56,0,4.267,1.707,4.267,4.267c0,2.56-1.707,4.267-4.267,4.267l0,0H179.2
	c-0.853,2.56-1.707,5.12-3.413,7.68l9.387,9.387c0.853,0.853,0.853,1.707,0.853,3.413s0,2.56-0.853,3.413
	c-1.707,1.707-4.267,1.707-5.973,0l-9.387-9.387c-2.56,1.707-5.12,2.56-7.68,3.413V192
	C162.133,194.56,160.427,196.267,157.867,196.267z M157.867,145.067c-6.827,0-12.8,5.973-12.8,12.8c0,6.827,5.973,12.8,12.8,12.8
	c6.827,0,12.8-5.973,12.8-12.8C170.667,151.04,164.693,145.067,157.867,145.067z M311.467,42.667H192
	c-2.56,0-4.267-1.707-4.267-4.267s1.707-4.267,4.267-4.267h55.467V4.267c0-2.56,1.707-4.267,4.267-4.267
	C254.293,0,256,1.707,256,4.267v29.867h55.467c2.56,0,4.267,1.707,4.267,4.267S314.027,42.667,311.467,42.667z"/>
</svg>