<?xml version="1.0" encoding="iso-8859-1"?>
<!-- Generator: Adobe Illustrator 19.0.0, SVG Export Plug-In . SVG Version: 6.00 Build 0)  -->
<svg fill="#555555" version="1.1" id="Layer_1" xmlns="http://www.w3.org/2000/svg" xmlns:xlink="http://www.w3.org/1999/xlink" x="0px" y="0px"
	 viewBox="0 0 472.615 472.615" style="enable-background:new 0 0 472.615 472.615;" xml:space="preserve">
<g >
	<g>
		<polygon points="98.462,39.385 98.462,108.309 403.692,108.309 403.692,334.769 472.615,334.769 472.615,39.385 		"/>
	</g>
</g>
<g>
	<g>
		<path d="M0,128v261.746l98.462-98.462l44.308,44.308l103.385-103.385L384,370.058V128H0z M88.615,246.132
			c-16.314,0-29.538-13.224-29.538-29.538c0-16.314,13.224-29.539,29.538-29.539c16.314,0,29.538,13.224,29.538,29.539
			C118.154,232.908,104.929,246.132,88.615,246.132z"/>
	</g>
</g>
<g>
	<g>
		<polygon points="246.154,260.054 142.769,363.438 98.462,319.131 0,417.592 0,433.231 384,433.231 384,397.905 		"/>
	</g>
</g>
<g>
</g>
<g>
</g>
<g>
</g>
<g>
</g>
<g>
</g>
<g>
</g>
<g>
</g>
<g>
</g>
<g>
</g>
<g>
</g>
<g>
</g>
<g>
</g>
<g>
</g>
<g>
</g>
<g>
</g>
</svg>
